PathFileType	4	(X/Y/Z)	OpenSim_Sub01_CSStiffKnee_Gyro.trc
DataRate	CameraRate	NumFrames	NumMarkers	Units	OrigDataRate	OrigDataStartFrame	OrigNumFrames
100	100	30	8	m	100	4036	5381
Frame#	Time	torso_imu_offset_imu	pelvis_imu_offset_imu	tibia_r_imu_offset_imu	femur_r_imu_offset_imu	tibia_l_imu_offset_imu	femur_l_imu_offset_imu	toes_r_imu_offset_imu	toes_l_imu_offset_imu
				X1	Y1	Z1	X2	Y2	Z2	X3	Y3	Z3	X4	Y4	Z4	X5	Y5	Z5	X6	Y6	Z6	X7	Y7	Z7	X8		Y8	Z8	

4036	40.35000000	0.16911046	0.17825613	0.30874725	0.49341858	-0.06944309	0.07408589	0.98096149	-0.38590935	-1.39343011	1.05408232	-0.02319297	-0.28073449	0.72128217	0.32638002	1.62567782	0.63668322	0.06204453	0.09992024	0.53739335	-0.76993494	-0.13415285	-0.30777615	-2.68022414	0.31185803
4037	40.36000000	0.17087494	0.15679844	0.32992287	0.48436260	-0.19119637	0.02382368	0.46718951	-0.38078677	-1.25192992	1.38234578	-0.15990701	-0.59556245	0.84958063	0.38173356	1.69723537	0.65482184	0.20496255	-0.04364662	0.27432734	-0.57826784	-0.01576478	-0.37268898	-2.93102551	0.36251690
4038	40.37000000	0.18054396	0.13741305	0.34864890	0.54964140	-0.27086064	-0.03656233	0.14828459	-0.32039946	-1.09380797	1.13388167	-0.10276759	-0.97366616	0.91984815	0.45052721	1.74744131	0.68574524	0.29386290	-0.20973697	0.15660564	-0.50315110	0.03344193	-0.41686821	-3.10561275	0.40502403
4039	40.38000000	0.20379435	0.12009001	0.36676079	0.63856184	-0.30116519	-0.09614232	0.04171016	-0.26180924	-0.96072425	0.59145222	0.01405873	-1.26944037	0.88584026	0.50309455	1.80094288	0.68747912	0.34378074	-0.36643594	0.13549759	-0.47310930	0.02866578	-0.48689314	-3.15499371	0.42776569
4040	40.39000000	0.24531412	0.10441206	0.38639082	0.69553284	-0.27899458	-0.14339682	0.13501756	-0.26485606	-0.88396694	0.09201763	0.03717063	-1.34905601	0.70935116	0.50916018	1.87668306	0.61992464	0.37414650	-0.48160636	0.13969134	-0.41791704	-0.01077974	-0.62399827	-3.02529674	0.41961373
4041	40.40000000	0.29872138	0.09022963	0.40693476	0.70862141	-0.20915053	-0.16984376	0.35831847	-0.31395068	-0.84525500	-0.19583738	-0.02468866	-1.26015410	0.45081386	0.46872565	1.89685813	0.50889919	0.37955515	-0.55071962	0.13790699	-0.33914298	-0.05987397	-0.74940785	-2.63343775	0.38071422
4042	40.41000000	0.35112268	0.07754309	0.42617013	0.69163650	-0.10113830	-0.16884200	0.60790313	-0.34912871	-0.79719005	-0.20326464	-0.06735162	-1.15712906	0.22867410	0.39961912	1.72690435	0.41893714	0.34002699	-0.58547968	0.12252252	-0.28061965	-0.09029499	-0.71396496	-1.87969323	0.31787781
4043	40.42000000	0.39358836	0.06465409	0.44104104	0.65574063	0.02852024	-0.14415659	0.79337643	-0.33613936	-0.71866709	0.05164883	-0.03466590	-1.13126449	0.12419481	0.31243983	1.29836381	0.37901852	0.25169708	-0.58613753	0.09493801	-0.26748914	-0.08761523	-0.45630673	-0.79011589	0.24084153
4044	40.43000000	0.42622077	0.04606981	0.44667873	0.60544906	0.14778275	-0.12271844	0.85502726	-0.29938553	-0.64808852	0.35971659	0.01963424	-1.12994824	0.13400107	0.20114321	0.69191532	0.33767545	0.14707718	-0.52692149	0.07600205	-0.28197128	-0.06850424	-0.11299216	0.32812119	0.16567972
4045	40.44000000	0.45046159	0.01681922	0.43836174	0.54524654	0.22487614	-0.13198218	0.74502481	-0.26923968	-0.62718897	0.50338668	0.03304078	-1.08812832	0.23892366	0.06020833	0.00915096	0.24167934	0.06238798	-0.38577476	0.08707389	-0.30148928	-0.05286233	0.16341267	1.15814094	0.10742659
4046	40.45000000	0.46896316	-0.01738096	0.41542192	0.48858787	0.25248627	-0.17244932	0.49532495	-0.25577144	-0.64898064	0.44568298	0.00596404	-1.01332996	0.37496536	-0.08723093	-0.64075906	0.13199798	0.02132726	-0.21534182	0.12761817	-0.31390427	-0.05050453	0.33155836	1.67556934	0.06152647
4047	40.46000000	0.48508939	-0.04453360	0.37959117	0.45418449	0.23774351	-0.22873221	0.18496099	-0.25706483	-0.67779238	0.25617768	-0.02414649	-0.95578658	0.45194647	-0.20121497	-1.14444033	0.10484827	0.04013688	-0.11212827	0.18418443	-0.31324588	-0.06527762	0.41572088	2.02833011	0.01191920
4048	40.47000000	0.50166299	-0.05781175	0.33451698	0.45334270	0.19114724	-0.28771235	-0.10481321	-0.26935073	-0.69034949	0.00970376	-0.03617036	-0.94328329	0.43522549	-0.25832607	-1.44496959	0.18895827	0.12054634	-0.12898675	0.24348820	-0.29589123	-0.09703301	0.44388857	2.31072942	-0.04647247
4049	40.48000000	0.52027858	-0.06210565	0.28805180	0.48069452	0.13029751	-0.34179253	-0.28914681	-0.28507089	-0.69186431	-0.21024037	-0.04648979	-0.95228538	0.41483673	-0.27254119	-1.61150236	0.26087695	0.23211920	-0.22010358	0.29298785	-0.26327745	-0.13687942	0.45044053	2.49246954	-0.09388819
4050	40.49000000	0.54218514	-0.06391247	0.24828198	0.52836774	0.07315318	-0.38436727	-0.29172096	-0.29650385	-0.69050882	-0.32580347	-0.07410483	-0.95453702	0.48550181	-0.26295821	-1.72383413	0.19079215	0.34183450	-0.33070516	0.32170373	-0.21805223	-0.17550911	0.46766129	2.53272189	-0.10996296
4051	40.50000000	0.56677886	-0.06995170	0.21983513	0.58592963	0.03145901	-0.41135656	-0.12932270	-0.29953662	-0.68521699	-0.32953781	-0.11265572	-0.94472970	0.61617863	-0.24930652	-1.79548924	-0.00420689	0.43492114	-0.45134182	0.33374360	-0.16829223	-0.21152691	0.49728497	2.45599450	-0.10278398
4052	40.51000000	0.59236601	-0.08705743	0.20529099	0.64145120	0.01326855	-0.42018327	0.12633214	-0.29220503	-0.66949664	-0.25549863	-0.14085790	-0.93108297	0.70184929	-0.25161445	-1.80100068	-0.22046632	0.50738931	-0.59924231	0.34207565	-0.12525672	-0.24818205	0.52301794	2.32521431	-0.09716868
4053	40.52000000	0.61789533	-0.11854762	0.20563806	0.68602665	0.02124090	-0.41103855	0.40252939	-0.27681712	-0.64183104	-0.13163113	-0.14489902	-0.91995165	0.68276616	-0.27429966	-1.73665552	-0.37427055	0.55853773	-0.77921578	0.35122460	-0.09596566	-0.28379151	0.52734874	2.17704276	-0.10647890
4054	40.53000000	0.64378055	-0.15989149	0.21837346	0.71753886	0.04610514	-0.39024700	0.62591137	-0.26515142	-0.61196155	0.02894949	-0.12806965	-0.91313968	0.60232505	-0.28693971	-1.64840462	-0.42888809	0.59469186	-0.96759043	0.34661992	-0.07788816	-0.30553304	0.49056859	1.98842800	-0.11803356
4055	40.54000000	0.67049874	-0.20539795	0.24026908	0.73418335	0.07718734	-0.36444051	0.72880969	-0.26865942	-0.59038265	0.21427651	-0.09628134	-0.91133234	0.51402501	-0.25789880	-1.58565018	-0.36077360	0.62333728	-1.13799889	0.31340028	-0.06756534	-0.30068057	0.39625992	1.73612639	-0.11830903
4056	40.55000000	0.69713476	-0.24836078	0.26548682	0.72790052	0.10599403	-0.33485584	0.70318863	-0.28218742	-0.57963825	0.40352434	-0.05861320	-0.91002293	0.43159104	-0.19168174	-1.56405179	-0.21688075	0.65412116	-1.27602931	0.26037528	-0.06529873	-0.27306072	0.26505185	1.47832481	-0.12146171
4057	40.56000000	0.72194275	-0.28148470	0.28665837	0.68698731	0.12533544	-0.29955729	0.57623241	-0.29082344	-0.57757902	0.57063703	-0.02599631	-0.90166155	0.34529514	-0.11409000	-1.57936263	-0.08552380	0.69790527	-1.37434576	0.21027884	-0.07359184	-0.23625314	0.13936815	1.32101572	-0.15789473
4058	40.57000000	0.74118132	-0.29954231	0.29841201	0.60960516	0.13172647	-0.25877595	0.38403477	-0.28755787	-0.58140443	0.68861748	-0.00583271	-0.88284782	0.24755810	-0.04603474	-1.62705434	-0.00679062	0.75271878	-1.43054136	0.17749258	-0.09147303	-0.20137542	0.04899362	1.32118644	-0.24062371
4059	40.58000000	0.74668045	-0.30193723	0.29987515	0.51603096	0.12991055	-0.21766896	0.18155314	-0.28329486	-0.58699630	0.72851954	0.00240319	-0.85952776	0.13627161	0.00309869	-1.70254445	0.08802977	0.78792296	-1.45300327	0.15736034	-0.11015323	-0.17377039	-0.00511629	1.42510212	-0.34339959
4060	40.59000000	0.73064700	-0.28917063	0.29087363	0.42786470	0.12553875	-0.18201967	0.02292051	-0.28968719	-0.59049773	0.66621919	0.00012930	-0.83794084	0.01167842	0.02693374	-1.80064528	0.27250665	0.77382795	-1.45100524	0.14294164	-0.12059153	-0.15762092	-0.02696122	1.56626362	-0.43680001
4061	40.60000000	0.69536454	-0.26660548	0.27215912	0.34947357	0.12213876	-0.15719511	-0.07259163	-0.30109299	-0.59258985	0.53009667	-0.01309836	-0.81430019	-0.10934939	0.03405592	-1.90999657	0.51838863	0.73058480	-1.42789625	0.13030651	-0.12206699	-0.15320121	-0.03142458	1.70106106	-0.51348980
4062	40.61000000	0.64905485	-0.24246275	0.24503103	0.27507214	0.12197924	-0.14829997	-0.10631963	-0.30170551	-0.59662140	0.37940469	-0.03880029	-0.77893586	-0.20018601	0.04183951	-2.01561938	0.73747600	0.70762738	-1.38356764	0.11730588	-0.11876434	-0.15847784	-0.03976181	1.79945643	-0.57914246
4063	40.62000000	0.59863968	-0.22282920	0.21111914	0.20166542	0.12598270	-0.15689340	-0.08865429	-0.28363796	-0.60393580	0.25212232	-0.07387235	-0.72886710	-0.24610041	0.05970832	-2.10732679	0.86632939	0.72919682	-1.32585243	0.10285363	-0.11436705	-0.17102119	-0.06296681	1.84608935	-0.63502180
4064	40.63000000	0.54796876	-0.20894726	0.17277462	0.13277749	0.13210424	-0.17663098	-0.04959503	-0.25696827	-0.61132520	0.13787108	-0.10486060	-0.67620827	-0.25918321	0.07909305	-2.18572854	0.89848512	0.76247792	-1.28040331	0.08818389	-0.11129859	-0.18758422	-0.08895338	1.85795779	-0.67217725
4065	40.64000000	0.50036317	-0.20122560	0.13249466	0.07234343	0.13730979	-0.20011601	-0.02034705	-0.23343417	-0.61504780	0.02098821	-0.11813270	-0.63437102	-0.25419112	0.08960103	-2.25222998	0.83672624	0.77008756	-1.27197964	0.07455331	-0.11179022	-0.20458850	-0.10271294	1.85337598	-0.68157777
